<?xml version="1.0" standalone="no"?>
<!DOCTYPE svg PUBLIC "-//W3C//DTD SVG 20010904//EN"
 "http://www.w3.org/TR/2001/REC-SVG-20010904/DTD/svg10.dtd">
<svg version="1.0" xmlns="http://www.w3.org/2000/svg"
 width="960.000000pt" height="960.000000pt" viewBox="0 0 960.000000 960.000000"
 preserveAspectRatio="xMidYMid meet">
<metadata>
Created by potrace 1.14, written by Peter Selinger 2001-2017
</metadata>
<g transform="translate(0.000000,960.000000) scale(0.100000,-0.100000)"
fill="#000000" stroke="none">
<path d="M1684 8217 c-69 -48 -89 -115 -64 -207 27 -101 100 -305 145 -405 53
-119 148 -310 163 -327 8 -10 12 -18 9 -18 -15 0 225 -362 302 -456 14 -18 42
-51 61 -74 81 -100 278 -300 374 -382 22 -18 50 -43 62 -54 12 -12 37 -32 56
-45 18 -13 35 -26 38 -29 26 -30 351 -250 369 -250 6 0 11 -3 11 -7 0 -5 10
-13 23 -19 12 -6 74 -38 137 -72 99 -52 163 -82 335 -157 119 -52 559 -181
645 -190 14 -1 52 -7 85 -13 176 -32 271 -38 315 -18 44 20 70 40 70 55 0 6 4
11 9 11 8 0 33 70 47 133 2 9 6 25 9 35 6 24 26 104 30 122 2 8 4 15 5 15 1 0
79 292 85 320 7 34 13 60 15 63 2 1 3 5 4 10 16 71 29 122 36 142 5 14 11 36
14 50 14 89 61 135 136 135 43 0 61 -10 211 -110 90 -60 166 -112 169 -116 3
-3 16 -12 29 -19 14 -7 30 -17 35 -22 24 -20 280 -188 287 -188 4 0 9 -3 11
-8 2 -4 127 -90 278 -191 151 -101 277 -188 278 -193 2 -4 8 -6 13 -2 5 3 12
-2 15 -10 3 -9 11 -16 16 -16 10 0 183 -115 206 -137 6 -6 21 -15 32 -18 11
-3 20 -11 20 -16 0 -5 5 -9 11 -9 6 0 28 -13 49 -30 21 -16 41 -30 45 -30 4 0
24 -13 45 -30 21 -16 42 -30 46 -30 5 0 23 -12 39 -26 17 -14 44 -33 60 -41
17 -9 32 -19 35 -22 3 -3 50 -36 106 -74 55 -37 106 -77 113 -90 17 -31 21
-76 9 -107 -15 -41 -36 -57 -178 -138 -204 -115 -358 -204 -370 -211 -17 -11
-295 -169 -325 -185 -11 -6 -22 -14 -25 -17 -3 -3 -41 -25 -85 -50 -44 -24
-88 -48 -97 -54 -51 -30 -174 -101 -183 -104 -5 -2 -21 -12 -35 -21 -14 -9
-50 -30 -80 -47 -30 -17 -116 -65 -190 -108 -74 -44 -145 -84 -157 -89 -13 -6
-23 -14 -23 -18 0 -5 -4 -8 -10 -8 -5 0 -53 -25 -107 -57 -54 -31 -123 -70
-153 -86 -30 -17 -56 -34 -58 -39 -2 -4 -7 -8 -12 -8 -6 0 -393 -218 -515
-291 -16 -10 -52 -30 -80 -45 -27 -14 -61 -34 -75 -44 -47 -32 -92 -42 -118
-26 -6 4 -12 4 -12 1 0 -4 -14 3 -30 15 -34 24 -61 79 -54 110 15 69 74 302
85 335 17 52 120 449 125 482 7 43 -20 98 -62 123 -28 18 -44 20 -101 16 -130
-9 -205 -16 -232 -21 -14 -2 -48 -7 -76 -10 -27 -4 -63 -9 -80 -12 -16 -2 -42
-6 -57 -8 -27 -4 -122 -21 -168 -30 -14 -3 -37 -7 -52 -10 -16 -3 -56 -12 -90
-20 -84 -19 -120 -26 -135 -27 -7 -1 -13 -5 -13 -10 0 -5 -4 -7 -9 -4 -5 4
-21 2 -35 -4 -15 -5 -37 -12 -49 -14 -56 -12 -180 -47 -192 -54 -5 -4 -15 -7
-22 -8 -13 -2 -80 -23 -103 -31 -8 -4 -18 -7 -22 -7 -3 -1 -10 -4 -14 -8 -4
-5 -15 -8 -23 -8 -21 0 -260 -92 -416 -160 -201 -88 -508 -249 -672 -353 -24
-15 -47 -27 -52 -27 -5 0 -11 -3 -13 -7 -5 -11 -97 -73 -108 -73 -6 0 -10 -4
-10 -10 0 -5 -7 -10 -15 -10 -8 0 -15 -3 -15 -8 0 -4 -16 -16 -35 -26 -19 -11
-35 -23 -35 -28 0 -4 -4 -8 -10 -8 -11 0 -287 -206 -320 -240 -3 -3 -34 -30
-70 -60 -36 -30 -85 -73 -110 -95 -49 -44 -377 -371 -426 -426 -28 -31 -164
-194 -191 -229 -6 -8 -31 -40 -55 -70 -64 -81 -173 -231 -188 -260 -7 -14 -16
-27 -20 -30 -8 -5 -132 -199 -174 -271 -102 -175 -137 -250 -135 -286 5 -67
38 -117 95 -145 27 -13 357 -15 2810 -12 1528 1 2797 4 2819 7 22 3 72 8 110
12 137 14 280 34 355 50 14 3 58 12 98 20 76 15 336 81 362 92 8 3 17 7 20 7
53 13 272 95 395 147 88 38 165 71 170 72 6 1 12 4 15 7 3 3 43 25 90 49 161
82 372 206 378 222 2 5 8 9 14 9 8 0 124 76 138 90 3 3 35 27 72 53 36 26 73
54 82 62 8 8 19 15 25 15 6 0 11 4 11 9 0 5 18 23 40 39 124 91 391 354 542
534 24 28 51 60 61 70 9 10 17 20 17 23 0 3 11 18 25 33 14 15 38 45 53 67 41
61 86 120 95 123 4 2 5 8 1 13 -3 5 0 9 5 9 6 0 11 6 11 14 0 8 3 16 8 18 9 4
132 195 132 205 0 3 6 14 14 22 12 14 38 62 112 201 10 19 19 37 19 40 4 14
19 46 25 50 7 6 112 246 134 306 8 22 31 84 51 139 20 55 38 109 41 120 2 11
8 31 13 45 6 14 22 70 36 125 27 101 31 120 40 165 6 31 13 68 20 100 3 14 7
45 10 70 3 25 8 54 10 66 19 90 27 556 12 669 -4 28 -9 68 -12 90 -6 58 -14
106 -20 135 -4 14 -8 36 -10 50 -9 64 -19 106 -28 118 -5 6 -7 12 -4 12 8 0
-49 208 -73 265 -5 11 -14 38 -21 60 -6 22 -15 44 -20 50 -5 5 -9 15 -9 22 0
25 -124 285 -182 382 -21 34 -38 65 -38 67 0 17 -214 315 -232 322 -4 2 -8 8
-8 13 0 9 -17 30 -89 108 -13 14 -35 40 -50 56 -43 47 -190 186 -250 235 -29
25 -59 50 -65 55 -13 12 -212 154 -241 172 -174 106 -308 177 -440 232 -44 18
-89 37 -100 42 -49 22 -228 79 -305 99 -106 26 -119 29 -150 35 -14 2 -50 9
-80 15 -30 6 -68 13 -85 15 -87 13 -134 18 -172 19 -24 0 -43 4 -43 8 0 4
-1158 7 -2572 7 l-2573 -1 -31 -21z"/>
</g>
</svg>
