<svg width="34" height="24" viewBox="0 0 34 24" fill="none" xmlns="http://www.w3.org/2000/svg">
<path d="M22.9111 4.81116e-05H6.13797C6.05148 0.000592334 5.96633 0.0214232 5.88934 0.0608678C5.81236 0.100312 5.74569 0.157271 5.6947 0.22717C5.64371 0.297069 5.6098 0.37796 5.59571 0.463347C5.58163 0.548733 5.58775 0.636236 5.61358 0.718826C6.07526 2.31955 6.8546 3.81075 7.90507 5.10337C9.96376 7.61802 12.9285 9.22135 16.1587 9.56699C16.3236 9.58613 16.4895 9.54181 16.6229 9.44304C16.7563 9.34427 16.8472 9.19842 16.8771 9.03509L17.6529 6.04497C17.6625 5.96642 17.6936 5.89204 17.7426 5.82998C17.7917 5.76791 17.8569 5.72056 17.9311 5.6931C18.0053 5.66563 18.0856 5.65912 18.1632 5.67428C18.2408 5.68944 18.3128 5.72567 18.3712 5.77902L25.4468 10.5301C25.5034 10.574 25.5487 10.6309 25.5787 10.6959C25.6087 10.761 25.6226 10.8323 25.6192 10.9039C25.6155 10.9768 25.5931 11.0476 25.5541 11.1093C25.515 11.171 25.4608 11.2216 25.3965 11.2561L15.8786 16.7116C15.8065 16.7559 15.723 16.778 15.6385 16.7752C15.554 16.7723 15.4722 16.7446 15.4033 16.6956C15.3343 16.6466 15.2814 16.5783 15.2509 16.4994C15.2205 16.4204 15.2139 16.3343 15.2321 16.2516L15.9504 13.4915C15.9645 13.4257 15.9627 13.3575 15.9452 13.2925C15.9277 13.2275 15.895 13.1676 15.8498 13.1178C15.8053 13.067 15.7498 13.027 15.6876 13.0009C15.6254 12.9748 15.5581 12.9631 15.4907 12.9668C12.2819 13.1984 9.18415 14.2403 6.48703 15.9951C3.78991 17.7499 1.58144 20.1603 0.0680479 23.001C0.0217561 23.0855 -0.00166875 23.1807 9.24683e-05 23.277C0.00185368 23.3734 0.0287399 23.4677 0.0780893 23.5504C0.127439 23.6332 0.19754 23.7017 0.281454 23.749C0.365367 23.7964 0.460183 23.821 0.556515 23.8204H18.7519C22.0096 23.8196 25.174 22.7321 27.7447 20.73C30.3154 18.7278 32.1457 15.9253 32.9462 12.7655C33.3193 11.2453 33.3415 9.66 33.011 8.12992C32.6805 6.59984 32.0061 5.16517 31.0388 3.93479C30.0716 2.70441 28.837 1.71063 27.4287 1.02887C26.0205 0.347104 24.4755 -0.00473446 22.9111 4.81116e-05V4.81116e-05Z" fill="#B5000C"/>
</svg>
