<svg xmlns="http://www.w3.org/2000/svg" viewBox="0 0 218.74 40.61"><defs><style>.cls-1{fill:#d7000f;}.cls-2{fill:#231815;}.cls-3{fill:#727171;}</style></defs><g id="레이어_2" data-name="레이어 2"><g id="레이어_1-2" data-name="레이어 1"><path class="cls-1" d="M99.85,22l8.86,9.49h-3a8.81,8.81,0,0,1-6.41-2.78l-5.48-5.83-2.16,8.61h-.18a3.7,3.7,0,0,1-3.58-4.59l3.33-13.29h.45a3.48,3.48,0,0,1,3.38,4.33l-.84,3.36,8.92-6.11a9,9,0,0,1,5.11-1.58h4Z"/><path class="cls-1" d="M86.89,17.5A4.23,4.23,0,0,0,86,15.34q-1.33-1.77-4.44-1.77H64.24a3,3,0,0,0,3,4H79.45a2.4,2.4,0,0,1,1.84.69,2,2,0,0,1,.35,1.95L80.5,24.74a3.31,3.31,0,0,1-1.34,1.94,4,4,0,0,1-2.35.73H65.7L66.31,25l.1-.38,1-4H65.88a4.37,4.37,0,0,0-4.23,3.3L61.39,25l-1.63,6.48h17.3a8.34,8.34,0,0,0,5.33-1.8,7.63,7.63,0,0,0,2.84-4.11l1.52-6.06A5.44,5.44,0,0,0,86.89,17.5Z"/><path class="cls-2" d="M214.87,13.57l-1.77,7.06H199.87l.75-2.95a3.3,3.3,0,0,0-3.2-4.11h-.67L194.62,22h0l-1.43,5.69a3.06,3.06,0,0,0,3,3.8h1l1.71-6.84H212.1l-.74,2.95a3.13,3.13,0,0,0,3,3.89h.9l3.32-13.24A3.73,3.73,0,0,0,215,13.57Z"/><path class="cls-2" d="M130.1,13.84h.79L134.55,24l1.57-6.23a5.48,5.48,0,0,1,5.32-4.15h.5l-4.48,17.88h-.85A6,6,0,0,1,131,27.5l-3.41-9.24L116.21,31.45h-.61a3.49,3.49,0,0,1-3.38-4.34l3.39-13.54h.58a3.38,3.38,0,0,1,3.28,4.21L117.92,24l6.47-7.5A7.57,7.57,0,0,1,130.1,13.84Z"/><path class="cls-2" d="M188.06,20.84H176.92a1.16,1.16,0,0,1-1-1.6,2.09,2.09,0,0,1,1.87-1.57h9.14a8.39,8.39,0,0,0,6.84-4.09H177.79c-2.66,0-5.8,2.47-6.56,5.51-1.09,4.32,2.34,5.66,3.86,5.66h11a1.08,1.08,0,0,1,1.14,1.39,1.9,1.9,0,0,1-1.72,1.45H174.18a6.2,6.2,0,0,0-5.32,3l-.52.86h16.91c3.86,0,6.06-3.47,6.46-5.05C192.47,23.35,191,20.84,188.06,20.84Z"/><path class="cls-2" d="M165.69,31.45h1l-6.3-17.88h-.61a10.52,10.52,0,0,0-8,3.69L139.66,31.45H142a7.05,7.05,0,0,0,5.41-2.52l.59-.7h2.82a5.43,5.43,0,0,0,5-4h-4.43l5.07-6,3,8.78A6.61,6.61,0,0,0,165.69,31.45Z"/><path class="cls-1" d="M36.93,2.23h-27A.9.9,0,0,0,9,3.39a20,20,0,0,0,3.66,7.06A19.94,19.94,0,0,0,26,17.63a1,1,0,0,0,1.12-.84L28.37,12a.72.72,0,0,1,1.12-.43l11.4,7.66a.7.7,0,0,1-.07,1.17L25.59,29.15a.7.7,0,0,1-.76,0,.72.72,0,0,1-.29-.72L25.71,24a.7.7,0,0,0-.17-.6.68.68,0,0,0-.58-.24A30.67,30.67,0,0,0,.1,39.29a.9.9,0,0,0,.79,1.32H30.22A23.61,23.61,0,0,0,53.1,22.79,16.6,16.6,0,0,0,36.93,2.23Z"/><path class="cls-3" d="M139.47.61a.12.12,0,0,1,.1.05.09.09,0,0,1,0,.1l-.19.76a.24.24,0,0,1-.24.17h-2V4.63a.16.16,0,0,0,.05.11.17.17,0,0,0,.12,0h2.42a.14.14,0,0,1,.1,0,.08.08,0,0,1,0,.11l-.19.76a.24.24,0,0,1-.24.17h-3.13a.26.26,0,0,1-.21-.09.29.29,0,0,1-.09-.21V1.26c0-.13,0-.25,0-.36A3,3,0,0,0,136,.58a1.14,1.14,0,0,0,.27,0h3.25ZM143.14,0V7.84a.3.3,0,0,1-.08.2.24.24,0,0,1-.18.07H142V3.45h-.6V7.6a.29.29,0,0,1-.08.19.26.26,0,0,1-.19.08h-.83V.65a1.83,1.83,0,0,0,0-.34,1.32,1.32,0,0,0-.07-.3h1.19V2.37h.6V.65c0-.12,0-.24,0-.34a2.21,2.21,0,0,0-.07-.3h1.2Z"/><path class="cls-3" d="M150.39.64a.4.4,0,0,1,.14-.11.33.33,0,0,1,.2-.05H152a.64.64,0,0,0-.17.11l-.15.14L147.91,7a.38.38,0,0,1-.13.12.45.45,0,0,1-.2,0h-1.26a.71.71,0,0,0,.21-.11,1,1,0,0,0,.18-.17Z"/><path class="cls-3" d="M157.35,2.13V3.24a.1.1,0,0,0,.11.11h2.47a.09.09,0,0,1,.08,0,.11.11,0,0,1,0,.08s0,.07,0,.18a2.8,2.8,0,0,1-.17.55.25.25,0,0,1-.24.18h-4.89a.18.18,0,0,1-.12,0,.14.14,0,0,1-.06-.12V3.35H156a.14.14,0,0,0,.14-.16V2.7l0-.3-.06-.27Zm1.1-1h-3.19a.17.17,0,0,1-.12-.05.14.14,0,0,1-.06-.12V0h4.43a.1.1,0,0,1,.11.11V1.55c0,.16,0,.3,0,.43s0,.25,0,.36-.05.24-.08.36-.07.25-.11.38h-1.16c0-.18.09-.33.12-.47s.06-.25.08-.37,0-.24,0-.36,0-.26,0-.42Zm.33,7.1a4.88,4.88,0,0,1-1.1-.12,3.26,3.26,0,0,1-.91-.35,1.85,1.85,0,0,1-.62-.55,1.37,1.37,0,0,1,0-1.49,1.77,1.77,0,0,1,.62-.56,3.26,3.26,0,0,1,.91-.35,5.15,5.15,0,0,1,2.21,0,3.26,3.26,0,0,1,.91.35,1.77,1.77,0,0,1,.62.56,1.37,1.37,0,0,1,0,1.49,1.85,1.85,0,0,1-.62.55,3.26,3.26,0,0,1-.91.35A4.84,4.84,0,0,1,158.78,8.21Zm0-2.53a4.4,4.4,0,0,0-.62,0,3,3,0,0,0-.57.14,1.27,1.27,0,0,0-.43.24.44.44,0,0,0-.16.34.43.43,0,0,0,.16.35,1.27,1.27,0,0,0,.43.24,3,3,0,0,0,.57.14,4.4,4.4,0,0,0,.62,0,4.3,4.3,0,0,0,.62,0A3.28,3.28,0,0,0,160,7a1.37,1.37,0,0,0,.43-.24.43.43,0,0,0,.16-.35.44.44,0,0,0-.16-.34,1.37,1.37,0,0,0-.43-.24,3.28,3.28,0,0,0-.58-.14A4.3,4.3,0,0,0,158.78,5.68Zm4-3.89a.1.1,0,0,1,.11.11s0,.07,0,.17a3,3,0,0,1-.16.54.25.25,0,0,1-.25.17h-.84V4.34a.29.29,0,0,1-.08.19.25.25,0,0,1-.18.08h-.9v-4a1.79,1.79,0,0,0,0-.34,1.55,1.55,0,0,0-.06-.31,4.68,4.68,0,0,0,.55,0h.7V1.79Z"/><path class="cls-3" d="M169.26.64a.36.36,0,0,1,.13-.11.35.35,0,0,1,.2-.05h1.25a.52.52,0,0,0-.17.11l-.16.14L166.78,7a.42.42,0,0,1-.14.12.41.41,0,0,1-.19,0h-1.26a.69.69,0,0,0,.2-.11.75.75,0,0,0,.18-.17Z"/><path class="cls-3" d="M178.51,5.05a2.37,2.37,0,0,0,.34.54l-.83.48a.23.23,0,0,1-.2,0,.24.24,0,0,1-.15-.13l-1.46-3.42s0,0-.08,0-.06,0-.07,0L174.59,6a.25.25,0,0,1-.14.13.26.26,0,0,1-.21,0l-.83-.48a3.36,3.36,0,0,0,.35-.54l2.07-4.6a.4.4,0,0,1,.11-.12.38.38,0,0,1,.19,0,.37.37,0,0,1,.21.06.26.26,0,0,1,.1.14Zm2.22-5V7.85a.29.29,0,0,1-.08.19.24.24,0,0,1-.18.07h-.91V.66a2.1,2.1,0,0,0-.09-.66A5.12,5.12,0,0,0,180,0Z"/><path class="cls-3" d="M188.12.64a.4.4,0,0,1,.14-.11.32.32,0,0,1,.19-.05h1.25a.52.52,0,0,0-.17.11l-.15.14L185.64,7a.38.38,0,0,1-.13.12.45.45,0,0,1-.2,0h-1.26a.58.58,0,0,0,.2-.11,1.15,1.15,0,0,0,.19-.17Z"/><path class="cls-3" d="M200.08,6.14c.08,0,.11,0,.11.1L200,7a.21.21,0,0,1-.09.13.23.23,0,0,1-.14,0h-7.32a.18.18,0,0,1-.13,0,.17.17,0,0,1,0-.12v-.9ZM196.16.37a.26.26,0,0,1,.21-.1.3.3,0,0,1,.22.1l2.71,3.18a1.11,1.11,0,0,0,.26.2,1.65,1.65,0,0,0,.22.13l-.71.67a.23.23,0,0,1-.18.09.23.23,0,0,1-.19-.09L196.45,2c-.06-.06-.11-.06-.16,0L194,4.56a.27.27,0,0,1-.19.08.29.29,0,0,1-.19-.08l-.69-.67.2-.11a1.14,1.14,0,0,0,.28-.22Z"/><path class="cls-3" d="M207,.64a.4.4,0,0,1,.14-.11.33.33,0,0,1,.2-.05h1.24a.64.64,0,0,0-.17.11l-.15.14L204.5,7a.38.38,0,0,1-.13.12.45.45,0,0,1-.2,0h-1.26a.71.71,0,0,0,.21-.11,1.56,1.56,0,0,0,.18-.17Z"/><path class="cls-3" d="M214.47,1.7c.08,0,.12,0,.12.11s0,.07,0,.18a2,2,0,0,1-.17.53.24.24,0,0,1-.24.17h-1.5V3a.17.17,0,0,0,.17.17h2.43a.1.1,0,0,1,.11.11l-.19.71a.26.26,0,0,1-.25.17h-3.13a.29.29,0,0,1-.21-.09.26.26,0,0,1-.09-.21V.94a2.17,2.17,0,0,0,0-.36,1.55,1.55,0,0,0-.07-.31H215a.1.1,0,0,1,.11.11s0,.07,0,.19a2.32,2.32,0,0,1-.17.52.25.25,0,0,1-.25.17h-2V1.7Zm-2.29,3h6.32V7.79a.29.29,0,0,1-.09.21.25.25,0,0,1-.21.08h-5.63a.28.28,0,0,1-.21-.08.29.29,0,0,1-.09-.21V5.38a2,2,0,0,0,0-.35A1.41,1.41,0,0,0,212.18,4.72Zm1.26,1.09v1a.17.17,0,0,0,.05.12.16.16,0,0,0,.11,0h3.57a.17.17,0,0,0,.12,0,.16.16,0,0,0,0-.12v-1ZM216,.65c0-.12,0-.24,0-.34a1.33,1.33,0,0,0-.06-.3h1.17V4a.26.26,0,0,1-.07.19.25.25,0,0,1-.19.09H216V2.68h-.82a.17.17,0,0,1-.12-.05.13.13,0,0,1-.05-.11V1.7h1ZM218.5,0V4.16a.26.26,0,0,1-.08.19.25.25,0,0,1-.18.08h-.76V.65a1.83,1.83,0,0,0,0-.34,1.32,1.32,0,0,0-.07-.3h1.11Z"/></g></g></svg>