<svg xmlns="http://www.w3.org/2000/svg" viewBox="0 0 132.19 33.39"><defs><style>.cls-1{fill:#d7000f;}.cls-2{fill:#231815;}</style></defs><g id="레이어_2" data-name="레이어 2"><g id="레이어_1-2" data-name="레이어 1"><path class="cls-1" d="M85.06,7.92l6.72,7.2H89.51A6.64,6.64,0,0,1,84.65,13L80.49,8.58l-1.64,6.54h-.14A2.81,2.81,0,0,1,76,11.64L78.52,1.55h.35a2.64,2.64,0,0,1,2.56,3.29l-.64,2.55,6.77-4.64a6.86,6.86,0,0,1,3.87-1.2h3Z"/><path class="cls-1" d="M75.23,4.54a3.35,3.35,0,0,0-.69-1.65,4,4,0,0,0-3.37-1.34H58a2.28,2.28,0,0,0,2.26,3h9.28A1.86,1.86,0,0,1,71,5.1a1.51,1.51,0,0,1,.26,1.48L70.38,10a2.54,2.54,0,0,1-1,1.48,3.06,3.06,0,0,1-1.78.56H59.15l.46-1.86.07-.28.76-3H59.28a3.3,3.3,0,0,0-3.2,2.5l-.2.8-1.24,4.92H67.77a6.27,6.27,0,0,0,4-1.37A5.73,5.73,0,0,0,74,10.64L75.12,6A4.06,4.06,0,0,0,75.23,4.54Z"/><path class="cls-2" d="M129.26,19.82l-1.35,5.36h-10l.57-2.24A2.51,2.51,0,0,0,116,19.82h-.51l-1.61,6.37h0l-1.08,4.31a2.32,2.32,0,0,0,2.25,2.89h.75l1.3-5.19h10l-.56,2.23a2.38,2.38,0,0,0,2.3,3h.69l2.52-10a2.83,2.83,0,0,0-2.75-3.52Z"/><path class="cls-2" d="M64.94,20h.6l2.78,7.67L69.5,23a4.17,4.17,0,0,1,4-3.15h.39L70.52,33.38h-.65a4.57,4.57,0,0,1-4.29-3l-2.59-7-8.59,10h-.47a2.63,2.63,0,0,1-2.56-3.28L54,19.82h.44A2.56,2.56,0,0,1,56.87,23L55.7,27.7,60.61,22A5.69,5.69,0,0,1,64.94,20Z"/><path class="cls-2" d="M108.92,25.34h-8.46a.88.88,0,0,1-.78-1.22,1.6,1.6,0,0,1,1.42-1.19H108a6.38,6.38,0,0,0,5.19-3.1H101.13a5.71,5.71,0,0,0-5,4.18c-.83,3.28,1.77,4.3,2.92,4.3h8.38a.81.81,0,0,1,.86,1.05,1.44,1.44,0,0,1-1.3,1.1H98.39a4.72,4.72,0,0,0-4,2.28l-.39.65h12.82a5.4,5.4,0,0,0,4.9-3.83C112.26,27.24,111.12,25.34,108.92,25.34Z"/><path class="cls-2" d="M91.94,33.38h.76L87.92,19.82h-.46a8,8,0,0,0-6.07,2.8l-9.2,10.76H74a5.36,5.36,0,0,0,4.1-1.9l.45-.54h2.14a4.12,4.12,0,0,0,3.77-3H81.06l3.85-4.57L87.21,30A5,5,0,0,0,91.94,33.38Z"/><path class="cls-1" d="M31.89,0H8.54a.77.77,0,0,0-.73,1A17.25,17.25,0,0,0,11,7.1a17.22,17.22,0,0,0,11.49,6.21.91.91,0,0,0,1-.74l1.08-4.16a.6.6,0,0,1,1-.37l9.85,6.61a.62.62,0,0,1,.24.52.59.59,0,0,1-.31.49L22.1,23.25a.6.6,0,0,1-.9-.64l1-3.84a.59.59,0,0,0-.14-.52.62.62,0,0,0-.5-.21A26.49,26.49,0,0,0,.09,32a.77.77,0,0,0,.68,1.14H26.1A20.39,20.39,0,0,0,45.86,17.76,14.34,14.34,0,0,0,31.89,0Z"/></g></g></svg>