<svg xmlns="http://www.w3.org/2000/svg" viewBox="0 0 139.05 84.97"><defs><style>.cls-1{fill:#d7000f;}.cls-2{fill:#231815;}.cls-3{fill:#727171;}</style></defs><g id="레이어_2" data-name="레이어 2"><g id="레이어_1-2" data-name="레이어 1"><path class="cls-1" d="M35.06,60.12l7.75,8.3H40.19A7.67,7.67,0,0,1,34.59,66l-4.79-5.1-1.89,7.53h-.17a3.22,3.22,0,0,1-3.12-4l2.91-11.63h.4a3,3,0,0,1,2.95,3.79l-.74,2.94L38,54.17a7.89,7.89,0,0,1,4.46-1.39h3.48Z"/><path class="cls-1" d="M23.73,56.22a3.77,3.77,0,0,0-.79-1.89,4.56,4.56,0,0,0-3.88-1.55H3.92a2.63,2.63,0,0,0,2.61,3.48H17.22a2.15,2.15,0,0,1,1.61.6,1.76,1.76,0,0,1,.31,1.71l-1,4A2.89,2.89,0,0,1,17,64.25a3.54,3.54,0,0,1-2,.64H5.2l.54-2.14.08-.33.87-3.48H5.35a3.8,3.8,0,0,0-3.69,2.89l-.23.92L0,68.42H15.13a7.27,7.27,0,0,0,4.67-1.58,6.68,6.68,0,0,0,2.48-3.59L23.61,58A4.51,4.51,0,0,0,23.73,56.22Z"/><path class="cls-2" d="M135.67,52.78,134.11,59H122.55l.65-2.58a2.89,2.89,0,0,0-2.8-3.6h-.59L118,60.12h0l-1.25,5a2.67,2.67,0,0,0,2.59,3.32h.88l1.49-6h11.56L132.59,65a2.74,2.74,0,0,0,2.66,3.4H136L139,56.84a3.27,3.27,0,0,0-3.17-4.06Z"/><path class="cls-2" d="M61.52,53h.69l3.21,8.85,1.37-5.46a4.79,4.79,0,0,1,4.65-3.63h.44L68,68.42h-.75A5.29,5.29,0,0,1,62.26,65l-3-8.08L49.37,68.42h-.53a3.05,3.05,0,0,1-3-3.79l3-11.85h.51a3,3,0,0,1,2.87,3.68l-1.36,5.41,5.66-6.56A6.56,6.56,0,0,1,61.52,53Z"/><path class="cls-2" d="M112.21,59.14h-9.74a1,1,0,0,1-.91-1.41,1.85,1.85,0,0,1,1.64-1.37h8a7.37,7.37,0,0,0,6-3.57H103.24a6.61,6.61,0,0,0-5.75,4.81c-.94,3.78,2.05,5,3.38,5h9.65a.93.93,0,0,1,1,1.21A1.65,1.65,0,0,1,110,65h-9.94a5.43,5.43,0,0,0-4.66,2.63l-.45.75h14.78A6.21,6.21,0,0,0,115.4,64C116.07,61.34,114.76,59.14,112.21,59.14Z"/><path class="cls-2" d="M92.65,68.42h.87L88,52.78h-.53a9.21,9.21,0,0,0-7,3.23L69.88,68.42h2.05a6.18,6.18,0,0,0,4.73-2.2l.52-.62h2.47A4.76,4.76,0,0,0,84,62.12H80.11l4.43-5.27,2.66,7.68A5.76,5.76,0,0,0,92.65,68.42Z"/><path class="cls-1" d="M82.57,0H51.5a1,1,0,0,0-1,1.33,23.08,23.08,0,0,0,4.21,8.12A22.89,22.89,0,0,0,70,17.7a1.21,1.21,0,0,0,1.3-1l1.42-5.55a.84.84,0,0,1,.51-.6.81.81,0,0,1,.78.11l13.09,8.8a.78.78,0,0,1,.32.69.79.79,0,0,1-.4.66l-17.5,10.1a.81.81,0,0,1-.88-.05.82.82,0,0,1-.32-.81L69.68,25a.79.79,0,0,0-.19-.69.84.84,0,0,0-.67-.28A35.24,35.24,0,0,0,40.26,42.58a1,1,0,0,0,.9,1.52h33.7a27.14,27.14,0,0,0,26.3-20.47A19.09,19.09,0,0,0,82.57,0Z"/><path class="cls-3" d="M31.55,77.38a.1.1,0,0,1,.09,0,.09.09,0,0,1,0,.11l-.19.75a.23.23,0,0,1-.24.17H29.27v2.94a.17.17,0,0,0,.05.12.19.19,0,0,0,.12,0h2.43a.18.18,0,0,1,.09,0,.08.08,0,0,1,0,.11l-.19.76a.24.24,0,0,1-.24.17H28.41a.29.29,0,0,1-.21-.09.26.26,0,0,1-.09-.21V78a2.17,2.17,0,0,0,0-.36,1.41,1.41,0,0,0-.07-.31l.27,0h3.26Zm3.66-.59v7.82a.27.27,0,0,1-.08.19.25.25,0,0,1-.18.08h-.84V80.21H33.5v4.15a.25.25,0,0,1-.07.19.24.24,0,0,1-.2.08h-.82V77.41c0-.12,0-.23,0-.34a2.21,2.21,0,0,0-.07-.3l.26,0h.92v2.35h.61V77.41a1.87,1.87,0,0,0,0-.34,1.33,1.33,0,0,0-.06-.3l.27,0h.92Z"/><path class="cls-3" d="M42.47,77.4a.36.36,0,0,1,.13-.11.46.46,0,0,1,.2-.05h1.25a.52.52,0,0,0-.17.11l-.15.14L40,83.72a.4.4,0,0,1-.14.11.41.41,0,0,1-.19,0H38.4a.57.57,0,0,0,.2-.12.83.83,0,0,0,.19-.17Z"/><path class="cls-3" d="M49.42,78.89V80a.09.09,0,0,0,0,.07.12.12,0,0,0,.09,0H52a.1.1,0,0,1,.07,0,.1.1,0,0,1,0,.08l0,.19a2.79,2.79,0,0,1-.16.55.26.26,0,0,1-.25.17H46.8a.21.21,0,0,1-.13,0,.16.16,0,0,1-.05-.11v-.87h1.49a.14.14,0,0,0,.14-.16v-.48a1.39,1.39,0,0,0,0-.3,1.27,1.27,0,0,0-.06-.28Zm1.11-1H47.34a.21.21,0,0,1-.13-.05.14.14,0,0,1-.05-.11v-.92h4.43c.07,0,.1,0,.1.12v1.41c0,.15,0,.3,0,.43s0,.25,0,.36-.05.24-.08.36-.07.24-.11.37H50.28c0-.17.09-.33.12-.46a2.87,2.87,0,0,0,.08-.38c0-.11,0-.23,0-.35s0-.27,0-.42Zm.33,7.1a5,5,0,0,1-1.11-.12,3.18,3.18,0,0,1-.9-.34,1.78,1.78,0,0,1-.62-.56A1.26,1.26,0,0,1,48,83.2a1.3,1.3,0,0,1,.23-.74,1.78,1.78,0,0,1,.62-.56,3.18,3.18,0,0,1,.9-.34,4.8,4.8,0,0,1,2.22,0,3.37,3.37,0,0,1,.91.34,1.84,1.84,0,0,1,.61.56,1.29,1.29,0,0,1,.22.74,1.25,1.25,0,0,1-.22.75,1.84,1.84,0,0,1-.61.56,3.37,3.37,0,0,1-.91.34A5,5,0,0,1,50.86,85Zm0-2.53a4.32,4.32,0,0,0-.62,0,3.29,3.29,0,0,0-.58.13,1.66,1.66,0,0,0-.42.24.45.45,0,0,0-.17.34.44.44,0,0,0,.17.35,1.42,1.42,0,0,0,.42.25,3.29,3.29,0,0,0,.58.13,4.32,4.32,0,0,0,.62,0,4.44,4.44,0,0,0,.62,0,3,3,0,0,0,.57-.13,1.35,1.35,0,0,0,.43-.25.44.44,0,0,0,.17-.35.45.45,0,0,0-.17-.34,1.57,1.57,0,0,0-.43-.24,3,3,0,0,0-.57-.13A4.44,4.44,0,0,0,50.86,82.44Zm4-3.89a.1.1,0,0,1,.11.11s0,.07,0,.18a3.23,3.23,0,0,1-.17.53.24.24,0,0,1-.25.17h-.84V81.1a.25.25,0,0,1-.07.19.26.26,0,0,1-.19.08h-.89v-4l0-.34a1.55,1.55,0,0,0-.06-.31,4.5,4.5,0,0,0,.54,0h.7v1.76Z"/><path class="cls-3" d="M61.33,77.4a.4.4,0,0,1,.14-.11.41.41,0,0,1,.19-.05h1.25a.52.52,0,0,0-.17.11l-.15.14-3.74,6.23a.36.36,0,0,1-.13.11.46.46,0,0,1-.2,0H57.26a.49.49,0,0,0,.2-.12.83.83,0,0,0,.19-.17Z"/><path class="cls-3" d="M70.58,81.81a2.1,2.1,0,0,0,.35.54l-.83.49a.23.23,0,0,1-.2,0,.22.22,0,0,1-.15-.13L68.28,79.3a.07.07,0,0,0-.07,0s-.07,0-.08,0l-1.46,3.43a.22.22,0,0,1-.15.13.23.23,0,0,1-.2,0l-.84-.49a2.29,2.29,0,0,0,.35-.54l2.08-4.6a.26.26,0,0,1,.1-.11A.33.33,0,0,1,68.2,77a.28.28,0,0,1,.21.07.33.33,0,0,1,.11.13Zm2.22-5v7.82a.25.25,0,0,1-.07.19.27.27,0,0,1-.19.08h-.91V77.42a2.1,2.1,0,0,0-.09-.66,5.12,5.12,0,0,0,.56,0Z"/><path class="cls-3" d="M80.19,77.4a.4.4,0,0,1,.14-.11.46.46,0,0,1,.2-.05h1.25a.54.54,0,0,0-.18.11l-.15.14-3.73,6.23a.4.4,0,0,1-.14.11.46.46,0,0,1-.2,0H76.13a.67.67,0,0,0,.2-.12.75.75,0,0,0,.18-.17Z"/><path class="cls-3" d="M92.16,82.9a.1.1,0,0,1,.11.11l-.19.79a.23.23,0,0,1-.1.12.24.24,0,0,1-.14,0H84.52a.21.21,0,0,1-.13,0,.16.16,0,0,1,0-.11V82.9Zm-3.93-5.77a.3.3,0,0,1,.22-.1.3.3,0,0,1,.21.1l2.72,3.18a1.38,1.38,0,0,0,.25.21,1,1,0,0,0,.22.12l-.71.68a.22.22,0,0,1-.18.08.23.23,0,0,1-.18-.08l-2.26-2.57a.1.1,0,0,0-.16,0L86,81.33a.25.25,0,0,1-.19.07.24.24,0,0,1-.18-.07l-.7-.68.2-.1a1.58,1.58,0,0,0,.28-.23Z"/><path class="cls-3" d="M99.06,77.4a.36.36,0,0,1,.13-.11.46.46,0,0,1,.2-.05h1.25a.52.52,0,0,0-.17.11l-.15.14-3.74,6.23a.4.4,0,0,1-.14.11.41.41,0,0,1-.19,0H95a.57.57,0,0,0,.2-.12.83.83,0,0,0,.19-.17Z"/><path class="cls-3" d="M106.55,78.46c.08,0,.12,0,.12.11s0,.07,0,.19a3.3,3.3,0,0,1-.17.52.24.24,0,0,1-.24.17h-1.5v.31a.17.17,0,0,0,0,.13.16.16,0,0,0,.12,0h2.42a.1.1,0,0,1,.11.11l-.19.71a.23.23,0,0,1-.24.17h-3.14a.27.27,0,0,1-.29-.29V77.71a2,2,0,0,0,0-.36,1.52,1.52,0,0,0-.06-.32l.26,0H107c.07,0,.1,0,.1.12a1,1,0,0,1,0,.18,1.89,1.89,0,0,1-.17.52.24.24,0,0,1-.25.17h-2v.42Zm-2.29,3h6.31v3a.29.29,0,0,1-.29.3h-5.64a.29.29,0,0,1-.29-.3V82.14c0-.12,0-.23,0-.35A2.82,2.82,0,0,0,104.26,81.48Zm1.26,1.1v1a.14.14,0,0,0,.16.16h3.56a.16.16,0,0,0,.12,0,.17.17,0,0,0,0-.12v-1ZM108,77.41c0-.12,0-.23,0-.34a1.33,1.33,0,0,0-.06-.3l.27,0h.91v3.94a.3.3,0,0,1-.08.2.25.25,0,0,1-.18.08H108V79.44h-.82a.17.17,0,0,1-.12,0,.17.17,0,0,1,0-.12v-.82h1Zm2.53-.62v4.13a.27.27,0,0,1-.07.2.26.26,0,0,1-.19.07h-.75V77.41c0-.12,0-.23,0-.34a2.21,2.21,0,0,0-.07-.3l.26,0h.84Z"/></g></g></svg>